# This file uses centimeters as units for non-parametric coordinates.

mtllib uIslandMain_Grass.mtl
g default
v 12.741947 0.883002 18.609344
v -1.323540 0.724346 20.139416
v -8.513435 0.240425 11.579745
v -7.394779 0.169830 0.740857
v 1.832026 0.375922 11.662189
v 15.315132 0.470761 15.513172
v 6.152934 0.536681 21.035988
v -8.438843 0.309964 18.993908
v -8.657857 0.169543 6.955780
v -12.526536 0.120699 5.793031
v 17.868908 0.049614 11.481086
v -12.888628 0.143311 -2.118031
v -7.950070 0.010280 -1.851517
v -10.111176 0.143311 -10.147201
v -2.071558 0.143311 -14.484208
v 8.849028 0.143311 -14.660098
v 9.138197 -0.555174 5.875083
v -2.090697 -0.712725 21.532192
v 5.065125 -1.243833 20.709869
v -11.254545 -0.620035 19.119614
v 8.804309 -2.381186 5.613742
v 0.599138 -0.619150 6.459402
v 17.963789 -2.123022 11.742931
v 17.724035 -0.251159 5.365940
v 13.412784 -1.413244 -13.796523
v 12.323387 -1.438430 -18.621628
v -17.410635 0.026480 11.266887
v 8.428142 -0.974695 -9.257510
v 12.682375 -1.087036 -11.464498
v 15.021888 -1.557426 18.407484
v -14.485859 -0.661228 -12.817479
v -4.701245 -0.020967 -20.512100
v -5.333583 0.212071 -6.383290
v -0.097133 -0.165476 -7.983268
v 8.445352 -0.020967 -21.501911
v -2.743377 -1.644461 5.897817
v -4.911124 -0.022936 5.238777
v -6.177929 -1.089991 2.796982
v -19.454121 -0.092825 -2.109994
v -19.457668 -0.151819 -1.977729
v -7.413615 -1.128168 -1.959583
v -6.837204 -0.958677 0.268132
v -19.488884 -0.020967 -1.992875
vt 0.449801 0.095505
vt 0.538627 0.131118
vt 0.500000 0.250000
vt 0.375137 0.099212
vt 0.337554 0.250000
vt 0.398873 0.323473
vt 0.297746 0.396946
vt 0.297746 0.245843
vt 0.297746 0.103054
vt 0.449801 0.404495
vt 0.538627 0.368882
vt 0.577254 0.487764
vt 0.443473 0.444296
vt 0.629781 0.347293
vt 0.625000 0.250000
vt 0.750000 0.250000
vt 0.667326 0.363791
vt 0.629781 0.152707
vt 0.577254 0.012236
vt 0.665372 0.133519
vt 0.318896 0.547436
vt 0.334169 0.524143
vt 0.339392 0.539126
vt 0.411981 0.548950
vt 0.350000 0.500000
vt 0.398586 0.500000
vt 0.679516 0.548936
vt 0.666576 0.527482
vt 0.698990 0.500000
vt 0.706612 0.530124
vt 0.750000 0.500000
vt 0.450000 0.500000
vt 0.650000 0.500000
vt 0.698990 0.500000
vt 0.650000 0.500000
vt 0.698990 0.500000
vt 0.750000 0.500000
vt 0.750000 0.500000
vt 0.743461 0.513077
vt 0.698990 0.500000
vt 0.650000 0.500000
vt 0.750000 0.500000
vt 0.698990 0.500000
vt 0.650000 0.500000
vt 0.750000 0.500000
vt 0.650000 0.500000
vt 0.313664 0.561990
vt 0.279369 0.520221
vt 0.250000 0.500000
vt 0.271754 0.531308
vt 0.649718 0.500941
vt 0.649486 0.501714
vt 0.743353 0.513295
vt 0.255083 0.510166
vn 0.153077 0.963297 -0.220512
vn 0.153077 0.963297 -0.220512
vn 0.153077 0.963298 -0.220512
vn -0.019904 0.982862 -0.183263
vn -0.019904 0.982862 -0.183263
vn -0.019904 0.982862 -0.183263
vn 0.024884 0.993443 -0.111591
vn 0.024884 0.993443 -0.111591
vn 0.024884 0.993443 -0.111591
vn 0.662781 0.580021 0.473600
vn 0.662781 0.580021 0.473600
vn 0.662781 0.580021 0.473600
vn 0.083704 0.995188 -0.050931
vn 0.083704 0.995188 -0.050931
vn 0.083704 0.995188 -0.050931
vn 0.012413 0.997606 -0.068028
vn 0.012413 0.997606 -0.068028
vn 0.012413 0.997606 -0.068028
vn 0.005950 0.987565 0.157096
vn 0.005950 0.987565 0.157096
vn 0.005950 0.987565 0.157096
vn -0.065908 0.712360 0.698713
vn -0.065908 0.712360 0.698713
vn -0.065908 0.712360 0.698713
vn 0.177513 -0.281189 0.943092
vn 0.093785 -0.234519 0.967577
vn 0.143313 -0.262342 0.954274
vn 0.325848 0.228538 0.917384
vn 0.325848 0.228538 0.917384
vn 0.325848 0.228538 0.917384
vn -0.056727 0.998351 -0.008793
vn -0.056727 0.998351 -0.008793
vn -0.056727 0.998351 -0.008793
vn -0.023717 0.999677 -0.009137
vn -0.023717 0.999677 -0.009137
vn -0.023717 0.999677 -0.009137
vn -0.185199 0.659226 0.728781
vn -0.185199 0.659226 0.728781
vn -0.185199 0.659226 0.728781
vn -0.150068 0.728216 0.668716
vn -0.150068 0.728216 0.668716
vn -0.150068 0.728216 0.668716
vn 0.043674 0.998907 -0.016677
vn 0.043674 0.998907 -0.016677
vn 0.043674 0.998907 -0.016677
vn 0.056577 0.998331 0.011544
vn 0.056577 0.998331 0.011544
vn 0.056577 0.998332 0.011544
vn -0.014033 0.999891 0.004690
vn -0.014033 0.999891 0.004690
vn -0.014033 0.999891 0.004690
vn -0.023524 0.999617 -0.014589
vn -0.023524 0.999617 -0.014589
vn -0.023524 0.999617 -0.014589
vn -0.068604 0.153625 -0.985745
vn -0.068604 0.153625 -0.985745
vn -0.068604 0.153625 -0.985745
vn 0.998849 0.040530 -0.025657
vn 0.998849 0.040530 -0.025657
vn 0.998849 0.040530 -0.025657
vn 0.335391 0.938623 -0.080623
vn 0.335391 0.938623 -0.080623
vn 0.335391 0.938623 -0.080623
vn -0.016395 0.998753 -0.047153
vn -0.016395 0.998753 -0.047153
vn -0.016395 0.998753 -0.047153
vn -0.012717 0.998870 -0.045789
vn -0.012717 0.998870 -0.045789
vn -0.012717 0.998870 -0.045789
vn -0.012693 0.998733 -0.048691
vn -0.012693 0.998733 -0.048691
vn -0.012693 0.998733 -0.048691
vn -0.287083 0.909731 0.299955
vn -0.287083 0.909731 0.299955
vn -0.287083 0.909731 0.299955
vn -0.011911 0.999926 -0.002375
vn -0.011911 0.999926 -0.002375
vn -0.011911 0.999926 -0.002375
vn 0.134956 0.968155 0.210862
vn 0.134956 0.968155 0.210862
vn 0.134956 0.968155 0.210862
vn 0.754831 0.498765 0.425987
vn 0.754831 0.498765 0.425987
vn 0.754831 0.498765 0.425987
vn 0.914040 0.087647 0.396042
vn 0.914040 0.087647 0.396042
vn 0.914040 0.087647 0.396042
vn -0.019816 0.999804 -0.000472
vn -0.019816 0.999804 -0.000472
vn -0.019816 0.999804 -0.000472
vn -0.024806 0.999684 0.003993
vn -0.024806 0.999684 0.003993
vn -0.024806 0.999684 0.003993
vn 0.838546 0.502506 -0.210545
vn 0.838546 0.502506 -0.210545
vn 0.838546 0.502506 -0.210545
vn -0.006468 0.999974 0.003154
vn -0.006468 0.999974 0.003154
vn -0.006468 0.999974 0.003154
vn 0.030527 0.997224 -0.067914
vn 0.030527 0.997224 -0.067914
vn 0.030527 0.997224 -0.067914
vn -0.025045 0.999649 -0.008663
vn -0.025045 0.999649 -0.008663
vn -0.025045 0.999649 -0.008663
vn -0.113815 0.987282 -0.111001
vn -0.113815 0.987282 -0.111001
vn -0.113815 0.987282 -0.111001
vn 0.023746 0.998025 0.058150
vn 0.023746 0.998025 0.058150
vn 0.023746 0.998025 0.058150
vn -0.011309 0.999928 -0.003912
vn -0.011309 0.999928 -0.003912
vn -0.011309 0.999928 -0.003912
vn -0.084891 0.983885 -0.157363
vn -0.084891 0.983885 -0.157363
vn -0.084891 0.983885 -0.157363
vn -0.064543 0.997914 0.000961
vn -0.064543 0.997915 0.000961
vn -0.064543 0.997915 0.000961
vn 0.047726 0.995750 -0.078769
vn 0.047726 0.995750 -0.078769
vn 0.047726 0.995750 -0.078769
vn 0.021993 0.998927 0.040768
vn 0.021993 0.998927 0.040768
vn 0.021993 0.998927 0.040768
vn -0.001986 0.999650 -0.026377
vn -0.001986 0.999650 -0.026377
vn -0.001986 0.999650 -0.026377
vn -0.000386 0.999712 -0.023981
vn -0.000386 0.999712 -0.023981
vn -0.000386 0.999712 -0.023981
vn 0.000760 0.998884 0.047215
vn 0.000760 0.998885 0.047215
vn 0.000760 0.998884 0.047215
vn 0.123488 0.969804 0.210311
vn 0.123488 0.969804 0.210311
vn 0.123488 0.969804 0.210311
vn 0.201634 -0.125260 -0.971418
vn 0.201634 -0.125260 -0.971418
vn 0.201634 -0.125260 -0.971418
vn 0.874889 0.060855 -0.480486
vn 0.874889 0.060855 -0.480486
vn 0.874889 0.060855 -0.480486
vn -0.960180 -0.244663 -0.134884
vn -0.960180 -0.244663 -0.134884
vn -0.960180 -0.244663 -0.134884
vn 0.809258 0.335566 0.482179
vn 0.809258 0.335566 0.482180
vn 0.809258 0.335566 0.482179
vn 0.371757 0.927277 -0.044199
vn 0.371757 0.927277 -0.044199
vn 0.371757 0.927277 -0.044199
vn 0.327660 0.944336 -0.029470
vn 0.327660 0.944336 -0.029470
vn 0.327660 0.944336 -0.029470
vn -0.047377 0.975089 -0.216696
vn -0.047377 0.975089 -0.216696
vn -0.047377 0.975089 -0.216696
vn -0.063893 0.152827 -0.986185
vn -0.063893 0.152827 -0.986185
vn -0.063893 0.152827 -0.986185
vn 0.844688 0.498743 -0.194314
vn 0.844688 0.498743 -0.194314
vn 0.844688 0.498743 -0.194314
vn 0.864695 0.431815 -0.256590
vn 0.864695 0.431815 -0.256590
vn 0.864695 0.431815 -0.256590
vn 0.206259 -0.296793 0.932401
s off
g polySurface114 polySurface113 polySurface29
usemtl lambert3SG
f 22/1/1 37/2/2 5/3/3
f 22/1/4 5/3/5 17/4/6
f 6/5/7 5/3/8 1/6/9
f 6/5/10 1/6/11 30/7/12
f 6/5/13 11/8/14 24/9/15
f 6/5/16 24/9/17 5/3/18
f 7/10/19 1/6/20 2/11/21
f 7/10/22 2/11/23 18/12/24
s 1
f 7/10/25 18/12/26 19/13/27
s off
f 7/10/28 30/7/29 1/6/30
f 8/14/31 2/11/32 3/15/33
f 8/14/34 3/15/35 27/16/36
f 8/14/37 20/17/38 18/12/39
f 8/14/40 18/12/41 2/11/42
f 9/18/43 3/15/44 37/2/45
f 9/18/46 37/2/47 4/19/48
f 9/18/49 10/20/50 27/16/51
f 9/18/52 27/16/53 3/15/54
f 22/21/55 17/22/56 21/23/57
f 23/24/58 24/25/59 11/26/60
f 25/27/61 26/28/62 16/29/63
f 2/11/64 1/6/65 5/3/66
f 3/15/67 2/11/68 5/3/69
f 37/2/70 3/15/71 5/3/72
f 8/14/73 27/16/74 20/17/75
f 9/18/76 4/19/77 10/20/78
f 29/30/79 16/29/80 28/31/81
f 6/5/82 30/7/83 11/8/84
f 23/24/85 11/26/86 30/32/87
f 27/33/88 10/34/89 43/35/90
f 43/35/91 10/34/92 12/36/93
f 13/37/94 4/38/95 42/39/96
f 10/34/97 4/38/98 12/36/99
f 12/36/100 4/38/101 13/37/102
f 12/36/103 14/40/104 43/35/105
f 43/35/106 14/40/107 31/41/108
f 13/37/109 33/42/110 12/36/111
f 12/36/112 33/42/113 14/40/114
f 14/40/115 15/43/116 31/41/117
f 31/41/118 15/43/119 32/44/120
f 33/42/121 34/45/122 14/40/123
f 14/40/124 34/45/125 15/43/126
f 32/44/127 15/43/128 35/46/129
f 35/46/130 15/43/131 16/29/132
f 15/43/133 34/45/134 16/29/135
f 16/29/136 34/45/137 28/31/138
f 22/21/139 36/47/140 37/48/141
f 4/49/142 37/48/143 38/50/144
f 39/51/145 40/52/146 43/35/147
f 13/37/148 41/53/149 33/42/150
f 16/29/151 26/28/152 35/46/153
f 25/27/154 16/29/155 29/30/156
f 17/4/157 5/3/158 24/9/159
f 24/25/160 21/23/161 17/22/162
f 4/49/163 38/50/164 42/54/165
f 13/37/166 42/39/167 41/53/168
s 1
f 7/10/25 19/13/27 30/7/169
