# This file uses centimeters as units for non-parametric coordinates.

mtllib uIslandSub_Dirt.mtl
g uIslandSub_Dirt:default1
v 3.407023 -1.037195 -7.709336
v -4.697272 -0.043058 -5.019357
v -4.250236 0.139014 3.513603
v 2.104155 -0.336684 5.671668
v 7.792884 -0.572255 -0.888415
v 3.734413 -2.772698 -6.145399
v -4.013666 -4.130597 -4.237082
v -2.417984 -5.537283 2.357923
v 1.044552 -3.374116 4.909118
v 7.103606 -2.594840 -0.245707
v 2.685159 -5.536389 -6.104553
v -1.413786 -6.378936 -3.941959
v 1.644854 -4.964995 3.691306
v 6.766012 -5.232747 -0.802188
v 1.834399 -8.152805 -4.144725
v -1.658910 -8.254767 -2.196624
v -1.568853 -7.667986 0.414774
v 1.236481 -10.633574 2.118011
v 4.024942 -9.191168 0.086447
v -0.499480 -11.898993 -1.459409
v -0.342766 -13.367304 0.317155
v 1.199955 -13.769102 0.791364
v 2.545473 -13.392016 -0.635436
v 1.538923 -14.420039 -0.552977
v -1.089085 -0.854387 -6.525262
v -5.342649 -1.007480 -0.584197
v -1.413630 -1.266934 4.992193
v 5.549295 -1.468396 2.882914
v 5.511009 -1.678900 -4.474032
v -0.065440 -5.644711 -5.866917
v -5.232189 -4.865999 -0.156647
v 3.567986 -3.963812 2.381550
v 4.533501 -4.141059 -3.994923
v 0.668115 -7.733879 -4.612081
v -0.633394 -6.961388 2.217850
v 3.904649 -7.970474 1.612110
v 4.516922 -8.214731 -1.715422
v 0.233107 -11.034113 -3.166372
v -1.171582 -10.647971 -0.162693
v -0.211570 -11.685313 1.656595
v 3.366788 -11.208151 1.047809
v 2.718197 -11.199870 -2.155250
v 4.380752 -3.556609 2.607647
v 5.074196 -5.571529 1.764009
v 2.989062 -9.727304 0.841174
v 5.979279 -0.398845 -4.386507
v 5.286830 -2.497000 -3.995801
v 4.014045 -6.083891 -4.036403
v 2.693823 -8.689251 -2.329910
v -0.049563 -3.146682 -5.634560
v 0.388703 -6.278816 -4.901866
v -5.110231 -3.146682 0.133897
v 1.440880 -8.026961 2.553047
v 2.273902 -9.195987 -3.342163
v 1.214705 -9.574723 -3.451579
v 0.113119 -9.445161 -3.324209
vt 0.318896 0.547436
vt 0.350000 0.500000
vt 0.380000 0.600000
vt 0.338043 0.600000
vt 0.300000 0.600000
vt 0.250000 0.500000
vt 0.411981 0.548950
vt 0.450000 0.500000
vt 0.470000 0.700000
vt 0.438638 0.600000
vt 0.500566 0.547713
vt 0.550000 0.500000
vt 0.540000 0.600000
vt 0.588363 0.549085
vt 0.650000 0.500000
vt 0.620000 0.600000
vt 0.579248 0.600000
vt 0.679516 0.548936
vt 0.698990 0.500000
vt 0.750000 0.500000
vt 0.700000 0.600000
vt 0.645904 0.600000
vt 0.358976 0.643940
vt 0.410000 0.700000
vt 0.383080 0.700000
vt 0.350000 0.700000
vt 0.428045 0.646642
vt 0.530000 0.700000
vt 0.571937 0.642573
vt 0.590000 0.700000
vt 0.560116 0.700000
vt 0.641957 0.646484
vt 0.650000 0.700000
vt 0.632157 0.700000
vt 0.397991 0.744971
vt 0.440000 0.800000
vt 0.400000 0.800000
vt 0.480000 0.800000
vt 0.501069 0.742527
vt 0.524356 0.756439
vt 0.520000 0.800000
vt 0.552968 0.741414
vt 0.560000 0.800000
vt 0.545139 0.800000
vt 0.603244 0.743448
vt 0.600000 0.800000
vt 0.578282 0.800000
vt 0.435733 0.841026
vt 0.417390 0.819965
vt 0.470000 0.900000
vt 0.450000 0.900000
vt 0.414960 0.829919
vt 0.469391 0.840199
vt 0.490000 0.900000
vt 0.499574 0.843011
vt 0.510000 0.900000
vt 0.530978 0.844053
vt 0.530000 0.900000
vt 0.564087 0.839521
vt 0.585647 0.815795
vt 0.585040 0.829919
vt 0.500000 1.000000
vn -0.419165 -0.237793 -0.876216
vn -0.419165 -0.237793 -0.876216
vn -0.419165 -0.237792 -0.876217
vn -0.162973 -0.420680 -0.892451
vn -0.084615 -0.393989 -0.915212
vn -0.136663 -0.412019 -0.900868
vn -0.213263 -0.675929 -0.705435
vn -0.213263 -0.675929 -0.705435
vn -0.213263 -0.675929 -0.705435
vn -0.876014 -0.350267 0.331531
vn -0.876014 -0.350267 0.331531
vn -0.876014 -0.350267 0.331531
vn -0.993190 -0.114722 -0.020300
vn -0.963828 -0.172827 -0.202896
vn -0.901093 0.046809 0.431092
vn -0.963387 -0.196108 -0.182830
vn -0.963387 -0.196108 -0.182830
vn -0.963387 -0.196108 -0.182830
vn -0.135610 -0.196484 0.971084
vn -0.135610 -0.196484 0.971084
vn -0.135610 -0.196484 0.971084
vn -0.343277 -0.433311 0.833308
vn -0.343277 -0.433311 0.833308
vn -0.343277 -0.433311 0.833308
vn -0.560764 -0.335155 0.757110
vn -0.560764 -0.335155 0.757110
vn -0.560764 -0.335155 0.757110
vn 0.865170 -0.142011 0.480951
vn 0.865170 -0.142011 0.480951
vn 0.865170 -0.142011 0.480951
vn 0.648703 -0.444443 0.617783
vn 0.509328 -0.386379 0.768958
vn 0.585682 -0.419188 0.693728
vn 0.507094 -0.372076 0.777441
vn 0.507094 -0.372076 0.777441
vn 0.507094 -0.372076 0.777441
vn 0.811460 -0.261100 -0.522838
vn 0.826611 -0.268576 -0.494552
vn 0.846851 -0.278831 -0.452877
vn 0.747207 -0.361556 -0.557637
vn 0.747207 -0.361556 -0.557637
vn 0.747207 -0.361555 -0.557637
vn 0.768151 -0.466715 -0.438316
vn 0.798236 -0.451683 -0.398499
vn 0.781685 -0.460238 -0.420892
vn 0.822389 -0.406685 -0.397849
vn 0.822389 -0.406685 -0.397849
vn 0.822389 -0.406685 -0.397849
vn -0.260900 0.091053 -0.961062
vn -0.247606 0.091293 -0.964550
vn -0.142192 0.092571 -0.985501
vn -0.489651 -0.643446 -0.588404
vn -0.489651 -0.643446 -0.588404
vn -0.489651 -0.643446 -0.588404
vn -0.086833 -0.850841 -0.518199
vn -0.014011 -0.838665 -0.544467
vn -0.101244 -0.852639 -0.512598
vn -0.086772 0.018222 -0.996062
vn -0.086772 0.018222 -0.996062
vn -0.086772 0.018222 -0.996062
vn -0.979974 0.036431 0.195766
vn -0.958860 0.020164 0.283164
vn -0.957463 0.112799 -0.265594
vn -0.298011 -0.951239 0.079581
vn -0.298011 -0.951239 0.079581
vn -0.298011 -0.951239 0.079581
vn -0.600934 -0.735858 -0.312076
vn -0.600934 -0.735858 -0.312076
vn -0.600934 -0.735858 -0.312076
vn -0.157862 -0.637094 0.754447
vn -0.157862 -0.637094 0.754447
vn -0.157862 -0.637094 0.754447
vn 0.333266 -0.868685 0.366496
vn 0.388191 -0.895557 0.217452
vn 0.283834 -0.831590 0.477385
vn 0.636839 -0.236319 0.733886
vn 0.636839 -0.236319 0.733886
vn 0.636839 -0.236319 0.733886
vn 0.558790 0.215953 0.800699
vn 0.504139 0.145312 0.851310
vn 0.689690 0.419417 0.590269
vn 0.638863 -0.300922 0.708025
vn 0.638863 -0.300922 0.708025
vn 0.638863 -0.300922 0.708025
vn 0.806976 -0.370012 -0.460305
vn 0.815565 -0.373938 -0.441615
vn 0.828560 -0.379876 -0.411317
vn 0.807315 -0.313888 -0.499716
vn 0.807315 -0.313888 -0.499716
vn 0.807315 -0.313888 -0.499716
vn 0.779388 -0.195677 -0.595201
vn 0.771762 -0.193412 -0.605785
vn 0.784762 -0.197277 -0.587563
vn 0.821827 0.014972 -0.569541
vn 0.821827 0.014972 -0.569541
vn 0.821827 0.014972 -0.569541
vn -0.408803 -0.253125 -0.876817
vn -0.410359 -0.253270 -0.876048
vn -0.384267 -0.250744 -0.888519
vn -0.551624 -0.528395 -0.645375
vn -0.551624 -0.528395 -0.645375
vn -0.551624 -0.528395 -0.645375
vn -0.179437 -0.911748 -0.369484
vn -0.179437 -0.911748 -0.369484
vn -0.179437 -0.911748 -0.369484
vn 0.092233 -0.615996 -0.782331
vn 0.092233 -0.615996 -0.782331
vn 0.092233 -0.615996 -0.782331
vn -0.954454 -0.275146 -0.115380
vn -0.954454 -0.275146 -0.115380
vn -0.954454 -0.275146 -0.115380
vn -0.991052 0.133413 0.004200
vn -0.991052 0.133413 0.004200
vn -0.991052 0.133413 0.004200
vn -0.238112 -0.386044 0.891220
vn -0.238112 -0.386045 0.891219
vn -0.238112 -0.386044 0.891220
vn -0.279671 -0.253079 0.926140
vn -0.270091 -0.231796 0.934517
vn -0.306379 -0.313689 0.898739
vn -0.743912 -0.393485 0.540152
vn -0.743912 -0.393485 0.540152
vn -0.743912 -0.393485 0.540152
vn -0.503585 -0.683086 0.528957
vn -0.503585 -0.683086 0.528957
vn -0.503585 -0.683086 0.528957
vn 0.553550 -0.318592 0.769468
vn 0.654330 -0.361075 0.664437
vn 0.435850 -0.266913 0.859530
vn 0.786874 -0.450108 0.422176
vn 0.786874 -0.450108 0.422176
vn 0.786874 -0.450108 0.422176
vn 0.656814 -0.562617 0.502054
vn 0.656756 -0.562618 0.502127
vn 0.656795 -0.562617 0.502078
vn 0.348047 -0.280637 0.894486
vn 0.341496 -0.347399 0.873324
vn 0.348507 -0.275114 0.896022
vn 0.744245 -0.403829 -0.531998
vn 0.717026 -0.429108 -0.549309
vn 0.747060 -0.401106 -0.530109
vn 0.522257 -0.613506 -0.592333
vn 0.522257 -0.613506 -0.592333
vn 0.522257 -0.613506 -0.592333
vn 0.350736 -0.856159 -0.379442
vn 0.349037 -0.860532 -0.371023
vn 0.355327 -0.843473 -0.402859
vn 0.808476 -0.580961 -0.094079
vn 0.808476 -0.580961 -0.094079
vn 0.808476 -0.580961 -0.094079
vn -0.590588 -0.123808 -0.797419
vn -0.531753 0.010582 -0.846834
vn -0.527491 0.019301 -0.849341
vn -0.781749 -0.352746 -0.514237
vn -0.781749 -0.352746 -0.514237
vn -0.781749 -0.352746 -0.514237
vn -0.257284 -0.812994 -0.522347
vn -0.257284 -0.812994 -0.522347
vn -0.257284 -0.812994 -0.522347
vn 0.201252 -0.433935 -0.878179
vn -0.159848 -0.559742 -0.813104
vn 0.267685 -0.424333 -0.865036
vn -0.987266 -0.144505 0.066517
vn -0.987266 -0.144505 0.066517
vn -0.987266 -0.144505 0.066517
vn -0.889369 -0.198384 0.411905
vn -0.889370 -0.198384 0.411905
vn -0.889369 -0.198384 0.411905
vn -0.931947 -0.315560 -0.178597
vn -0.931947 -0.315560 -0.178597
vn -0.931947 -0.315560 -0.178597
vn -0.929863 -0.329108 -0.164447
vn -0.929863 -0.329108 -0.164447
vn -0.929863 -0.329108 -0.164447
vn -0.395447 0.146672 0.906702
vn -0.395447 0.146672 0.906702
vn -0.395447 0.146672 0.906702
vn -0.010535 -0.389534 0.920952
vn -0.010535 -0.389534 0.920952
vn -0.010535 -0.389534 0.920952
vn -0.373213 -0.559950 0.739708
vn -0.373213 -0.559950 0.739708
vn -0.373213 -0.559950 0.739708
vn -0.916464 -0.203063 0.344760
vn -0.916464 -0.203063 0.344760
vn -0.916464 -0.203063 0.344760
vn 0.486813 0.241318 0.839511
vn 0.486808 0.241317 0.839514
vn 0.486828 0.241320 0.839502
vn 0.944556 -0.326180 -0.037693
vn 0.944556 -0.326180 -0.037693
vn 0.944556 -0.326180 -0.037693
vn 0.655009 -0.600177 0.459075
vn 0.655009 -0.600177 0.459075
vn 0.655009 -0.600177 0.459075
vn 0.335270 -0.370417 0.866248
vn 0.335270 -0.370417 0.866248
vn 0.335270 -0.370417 0.866248
vn 0.884323 -0.023852 -0.466265
vn 0.891862 -0.018116 -0.451945
vn 0.873374 -0.025359 -0.486390
vn 0.104283 -0.559436 -0.822287
vn 0.205919 -0.506970 -0.837006
vn 0.255543 -0.470701 -0.844475
vn 0.917241 -0.273228 -0.289855
vn 0.917241 -0.273228 -0.289855
vn 0.917241 -0.273228 -0.289855
vn 0.150442 -0.224526 -0.962785
vn 0.150442 -0.224526 -0.962785
vn 0.150442 -0.224526 -0.962785
vn -0.586940 -0.648737 -0.484398
vn -0.586940 -0.648737 -0.484398
vn -0.586940 -0.648737 -0.484398
vn -0.333768 -0.878696 0.341310
vn -0.333768 -0.878696 0.341310
vn -0.333768 -0.878696 0.341310
vn 0.653620 -0.603316 0.456936
vn 0.653620 -0.603316 0.456936
vn 0.653620 -0.603316 0.456936
vn 0.648703 -0.444443 0.617783
vn 0.585682 -0.419188 0.693728
vn 0.712828 -0.467774 0.522555
vn 0.333266 -0.868685 0.366496
vn 0.423219 -0.900453 0.100351
vn 0.388191 -0.895557 0.217452
vn 0.558790 0.215953 0.800699
vn 0.689690 0.419417 0.590269
vn 0.710920 0.462551 0.529753
vn 0.553550 -0.318592 0.769468
vn 0.784809 -0.411933 0.463019
vn 0.654330 -0.361075 0.664437
vn 0.656814 -0.562617 0.502054
vn 0.656795 -0.562617 0.502078
vn 0.656899 -0.562614 0.501945
vn 0.486813 0.241318 0.839511
vn 0.486777 0.241312 0.839534
vn 0.486808 0.241317 0.839514
vn 0.811460 -0.261100 -0.522838
vn 0.788309 -0.249937 -0.562228
vn 0.826611 -0.268576 -0.494552
vn 0.768151 -0.466715 -0.438316
vn 0.781685 -0.460238 -0.420892
vn 0.739643 -0.479018 -0.472725
vn 0.806976 -0.370012 -0.460305
vn 0.778416 -0.356956 -0.516382
vn 0.815565 -0.373938 -0.441615
vn 0.779388 -0.195677 -0.595201
vn 0.784762 -0.197277 -0.587563
vn 0.798913 -0.201507 -0.566686
vn 0.744245 -0.403829 -0.531998
vn 0.691828 -0.450967 -0.563917
vn 0.717026 -0.429108 -0.549309
vn 0.350736 -0.856159 -0.379442
vn 0.355327 -0.843473 -0.402859
vn 0.357911 -0.835708 -0.416522
vn 0.884323 -0.023852 -0.466265
vn 0.918293 0.027915 -0.394917
vn 0.891862 -0.018116 -0.451945
vn -0.162973 -0.420680 -0.892451
vn -0.136663 -0.412019 -0.900868
vn -0.202195 -0.433013 -0.878417
vn -0.260900 0.091053 -0.961062
vn -0.350724 0.088943 -0.932246
vn -0.247606 0.091293 -0.964550
vn -0.086833 -0.850841 -0.518199
vn -0.101244 -0.852639 -0.512598
vn -0.202298 -0.859439 -0.469511
vn -0.408803 -0.253125 -0.876817
vn -0.443235 -0.256191 -0.859016
vn -0.410359 -0.253270 -0.876048
vn -0.993190 -0.114722 -0.020300
vn -0.901093 0.046809 0.431092
vn -0.491172 0.228772 0.840484
vn -0.979974 0.036431 0.195766
vn -0.674408 -0.076268 0.734409
vn -0.958860 0.020164 0.283164
vn 0.348047 -0.280637 0.894486
vn 0.348507 -0.275114 0.896022
vn 0.354506 -0.180908 0.917386
vn -0.279671 -0.253079 0.926140
vn -0.228939 -0.142755 0.962916
vn -0.270091 -0.231796 0.934517
vn 0.918293 0.027915 -0.394917
vn 0.909269 0.067062 -0.410771
vn 0.891862 -0.018116 -0.451945
vn 0.205919 -0.506970 -0.837006
vn 0.267967 -0.514005 -0.814857
vn 0.255543 -0.470701 -0.844475
vn 0.201252 -0.433935 -0.878179
vn -0.150194 -0.379555 -0.912896
vn -0.159848 -0.559742 -0.813104
vn -0.531753 0.010582 -0.846834
vn -0.486902 0.097403 -0.868009
vn -0.527491 0.019301 -0.849341
vn 0.104283 -0.559436 -0.822287
vn 0.084802 -0.572212 -0.815709
vn 0.205919 -0.506970 -0.837006
vn 0.732477 -0.012302 -0.680681
vn 0.201252 -0.433935 -0.878179
vn 0.267685 -0.424333 -0.865036
s off
g uIslandSub_Dirt:group1 uIslandSub_Dirt:pPyramid1 uIslandSub_Dirt:polySurface117 uIslandSub_Dirt:polySurface1
usemtl uIslandSub_Dirt:lambert2SG
f 25/1/1 7/3/2 2/2/3
f 25/1/4 6/5/5 50/4/6
f 25/1/7 1/6/8 6/5/9
f 26/7/10 8/9/11 3/8/12
f 26/7/13 7/3/14 52/10/15
f 26/7/16 2/2/17 7/3/18
f 27/11/19 9/13/20 4/12/21
f 27/11/22 8/9/23 9/13/24
f 27/11/25 3/8/26 8/9/27
f 28/14/28 10/16/29 5/15/30
f 28/14/31 9/13/32 43/17/33
f 28/14/34 4/12/35 9/13/36
f 29/18/37 46/19/38 5/15/39
f 29/18/40 6/21/41 1/20/42
f 29/18/43 10/16/44 47/22/45
f 29/18/46 5/15/47 10/16/48
f 30/23/49 50/4/50 6/5/51
f 30/23/52 12/24/53 7/3/54
f 30/23/55 11/26/56 51/25/57
f 30/23/58 6/5/59 11/26/60
f 31/27/61 52/10/62 7/3/63
f 31/27/64 12/24/65 8/9/66
f 31/27/67 7/3/68 12/24/69
f 8/9/70 13/28/71 9/13/72
f 32/29/73 43/17/74 9/13/75
f 32/29/76 14/30/77 10/16/78
f 32/29/79 13/28/80 44/31/81
f 32/29/82 9/13/83 13/28/84
f 33/32/85 47/22/86 10/16/87
f 33/32/88 11/33/89 6/21/90
f 33/32/91 14/30/92 48/34/93
f 33/32/94 10/16/95 14/30/96
f 34/35/97 51/25/98 11/26/99
f 34/35/100 16/36/101 12/24/102
f 34/35/103 15/37/104 16/36/105
f 34/35/106 11/26/107 15/37/108
f 17/38/109 8/9/110 12/24/111
f 17/38/112 12/24/113 16/36/114
f 35/39/115 13/28/116 8/9/117
f 35/39/118 53/40/119 13/28/120
f 35/39/121 17/38/122 18/41/123
f 35/39/124 8/9/125 17/38/126
f 36/42/127 44/31/128 13/28/129
f 36/42/130 19/43/131 14/30/132
f 36/42/133 18/41/134 45/44/135
f 36/42/136 13/28/137 53/40/138
f 37/45/139 48/34/140 14/30/141
f 37/45/142 15/46/143 11/33/144
f 37/45/145 19/43/146 49/47/147
f 37/45/148 14/30/149 19/43/150
f 38/48/151 16/36/152 56/49/153
f 38/48/154 20/50/155 16/36/156
f 38/48/157 23/51/158 20/50/159
f 56/49/160 55/52/161 23/51/162
f 39/53/163 17/38/164 16/36/165
f 39/53/166 21/54/167 17/38/168
f 39/53/169 20/50/170 21/54/171
f 39/53/172 16/36/173 20/50/174
f 40/55/175 18/41/176 17/38/177
f 40/55/178 22/56/179 18/41/180
f 40/55/181 21/54/182 22/56/183
f 40/55/184 17/38/185 21/54/186
f 41/57/187 45/44/188 18/41/189
f 41/57/190 23/58/191 19/43/192
f 41/57/193 22/56/194 23/58/195
f 41/57/196 18/41/197 22/56/198
f 42/59/199 49/47/200 19/43/201
f 42/59/202 55/61/203 54/60/204
f 42/59/205 19/43/206 23/58/207
f 20/50/208 23/51/209 24/62/210
f 24/62/211 21/54/212 20/50/213
f 24/62/214 22/56/215 21/54/216
f 24/62/217 23/58/218 22/56/219
f 28/14/220 43/17/221 10/16/222
f 32/29/223 10/16/224 43/17/225
f 32/29/226 44/31/227 14/30/228
f 36/42/229 14/30/230 44/31/231
f 36/42/232 45/44/233 19/43/234
f 41/57/235 19/43/236 45/44/237
f 29/18/238 1/20/239 46/19/240
f 29/18/241 47/22/242 6/21/243
f 33/32/244 6/21/245 47/22/246
f 33/32/247 48/34/248 11/33/249
f 37/45/250 11/33/251 48/34/252
f 37/45/253 49/47/254 15/46/255
f 42/59/256 54/60/257 49/47/258
f 25/1/259 50/4/260 7/3/261
f 30/23/262 7/3/263 50/4/264
f 30/23/265 51/25/266 12/24/267
f 34/35/268 12/24/269 51/25/270
f 26/7/271 52/10/272 8/9/273
f 31/27/274 8/9/275 52/10/276
f 36/42/277 53/40/278 18/41/279
f 35/39/280 18/41/281 53/40/282
f 54/60/283 15/46/284 49/47/285
f 55/61/286 15/46/287 54/60/288
f 56/49/289 15/37/290 55/52/291
f 16/36/292 15/37/293 56/49/294
f 42/59/295 23/58/296 55/61/297
f 38/48/298 56/49/299 23/51/300
