# This file uses centimeters as units for non-parametric coordinates.

mtllib lIslandMain_Grass.mtl
g default
v 94.482635 8.338545 -14.752626
v 84.096367 8.338545 -14.752678
v 109.832298 8.338545 -14.752856
v 100.442741 8.338545 -14.752720
v 112.105652 8.195588 -4.544479
v 110.813393 8.228668 6.230150
v 109.105545 8.301096 1.960493
v 82.523270 8.546933 -21.353651
v 78.582100 8.079893 -18.854439
v 80.634987 8.156870 -10.333323
v 84.646484 8.279553 -9.732838
v 92.008537 8.496207 -21.840338
v 77.266190 8.357763 -14.495676
v 100.015045 8.496207 -21.840260
v 93.835014 8.401039 -9.321715
v 100.035439 8.401039 -9.321600
v 90.211594 7.982079 -9.832780
v 107.063583 8.496207 -21.840187
v 104.412903 8.401039 -6.934006
v 114.759651 8.348450 -17.314831
v 111.826103 8.399920 -20.611773
v 107.516640 8.253094 -4.324105
v 114.189064 8.340665 5.868921
v 115.225189 8.340665 -1.047817
v 110.502037 8.195588 8.314379
v 112.899796 8.108911 7.594898
v 108.200577 8.454104 -0.493225
v 108.163918 8.428973 2.073862
v 107.196533 8.318327 5.708843
v 108.414047 8.340665 7.760595
v 115.588737 8.372190 -12.440308
v 115.863693 8.340665 -8.139902
v 115.488503 8.340665 -3.972432
vt 0.500000 0.250000
vt 0.373798 0.126202
vt 0.318177 0.181823
vt 0.500000 0.500000
vt 0.395475 0.395475
vt 0.750000 0.250000
vt 0.500000 0.000000
vt 0.250000 0.250000
vt 0.625000 0.500000
vt 0.750000 0.500000
vt 0.750000 0.500000
vt 0.500000 0.500000
vt 0.500000 0.500000
vt 0.500000 0.500000
vt 0.500000 0.500000
vt 0.625000 0.500000
vt 0.750000 0.500000
vt 0.500000 0.500000
vt 0.625000 0.500000
vt 0.750000 0.500000
vt 0.750000 0.500000
vt 0.625000 0.500000
vt 0.500000 0.500000
vt 0.750000 0.500000
vt 0.750000 0.500000
vt 0.625000 0.500000
vt 0.625000 0.500000
vt 0.683363 0.500000
vt 0.500000 0.500000
vt 0.500000 0.500000
vt 0.545258 0.500000
vt 0.500000 0.500000
vt 0.583522 0.500000
vt 0.750000 0.500000
vt 0.750000 0.500000
vt 0.750000 0.500000
vn -0.085151 0.995290 0.046330
vn -0.085151 0.995290 0.046330
vn -0.085151 0.995290 0.046330
vn -0.058991 0.998248 -0.004629
vn -0.058991 0.998248 -0.004629
vn -0.058991 0.998248 -0.004629
vn 0.000000 0.999947 -0.010309
vn 0.000000 0.999947 -0.010309
vn 0.000000 0.999947 -0.010309
vn -0.000000 0.999802 0.019925
vn -0.000000 0.999802 0.019925
vn -0.000000 0.999802 0.019925
vn 0.006881 0.999617 0.026803
vn 0.006881 0.999617 0.026803
vn 0.006881 0.999617 0.026803
vn 0.000419 0.998379 -0.056908
vn 0.000419 0.998379 -0.056908
vn 0.000419 0.998379 -0.056908
vn 0.004489 0.999192 0.039951
vn 0.004489 0.999192 0.039951
vn 0.004489 0.999192 0.039951
vn -0.000000 0.999802 0.019925
vn -0.000000 0.999802 0.019925
vn -0.000000 0.999802 0.019925
vn 0.000000 0.999947 -0.010309
vn 0.000000 0.999947 -0.010309
vn 0.000000 0.999947 -0.010309
vn 0.000000 0.999947 -0.010309
vn 0.055137 0.991279 0.119689
vn 0.000000 0.999947 -0.010309
vn -0.000000 0.999801 0.019926
vn -0.000000 0.999801 0.019926
vn -0.000000 0.999802 0.019926
vn 0.002442 0.999977 -0.006362
vn 0.002442 0.999977 -0.006362
vn 0.002442 0.999977 -0.006362
vn -0.000000 0.999947 -0.010308
vn -0.000000 0.999947 -0.010308
vn -0.000000 0.999947 -0.010308
vn 0.000000 0.999802 0.019926
vn 0.000000 0.999802 0.019926
vn 0.000000 0.999801 0.019926
vn -0.000000 0.999947 -0.010308
vn -0.000000 0.999947 -0.010308
vn -0.000000 0.999947 -0.010308
vn 0.000000 0.999801 0.019926
vn 0.000000 0.999801 0.019926
vn 0.000000 0.999802 0.019926
vn 0.007942 0.999821 0.017147
vn 0.007942 0.999821 0.017147
vn 0.004175 0.999921 0.011896
vn 0.023989 0.999674 0.008722
vn 0.023989 0.999674 0.008722
vn 0.023989 0.999674 0.008722
vn 0.014417 0.999116 0.039492
vn 0.014417 0.999116 0.039492
vn 0.014417 0.999116 0.039492
vn -0.039787 0.999190 -0.005960
vn -0.039787 0.999190 -0.005960
vn -0.039787 0.999190 -0.005960
vn -0.034553 0.999398 0.003020
vn 0.037528 0.999285 0.004680
vn -0.008894 0.996926 0.077844
vn 0.064762 0.997597 0.024604
vn 0.107580 0.993596 0.034553
vn 0.079926 0.996451 0.026401
vn 0.005266 0.997478 0.070777
vn -0.077589 0.978320 0.192015
vn -0.015954 0.999206 0.036518
vn -0.004173 0.999984 -0.003728
vn -0.004173 0.999984 -0.003728
vn -0.004173 0.999984 -0.003728
vn -0.013530 0.999762 0.017141
vn -0.013530 0.999762 0.017141
vn -0.013530 0.999762 0.017141
vn -0.029034 0.999529 0.009985
vn -0.029034 0.999529 0.009985
vn -0.029034 0.999529 0.009985
vn -0.042205 0.999102 -0.003800
vn -0.042205 0.999102 -0.003800
vn -0.042205 0.999102 -0.003800
vn 0.011286 0.999603 -0.025831
vn 0.011286 0.999603 -0.025831
vn 0.011286 0.999603 -0.025831
vn -0.042205 0.999102 -0.003800
vn -0.042205 0.999102 -0.003800
vn -0.042205 0.999102 -0.003800
vn -0.015954 0.999206 0.036518
vn 0.015793 0.999873 0.001970
vn 0.015793 0.999873 0.001970
vn -0.042856 0.999067 -0.005345
vn -0.034553 0.999398 0.003020
vn -0.041890 0.999116 0.003588
vn -0.077589 0.978320 0.192015
vn -0.219058 0.975329 -0.027318
vn -0.015954 0.999206 0.036518
vn -0.034553 0.999398 0.003020
vn -0.008894 0.996926 0.077844
vn -0.041890 0.999116 0.003588
vn 0.005266 0.997478 0.070777
vn -0.015954 0.999206 0.036518
vn 0.015793 0.999873 0.001970
vn 0.107580 0.993596 0.034553
vn 0.109261 0.992906 0.046896
vn 0.079926 0.996451 0.026401
vn 0.064762 0.997597 0.024604
vn 0.079926 0.996451 0.026401
vn 0.063656 0.997660 0.024968
vn 0.007942 0.999821 0.017147
vn 0.016098 0.999743 0.015951
vn 0.007942 0.999821 0.017147
vn -0.111384 0.993470 -0.024714
vn 0.000000 0.999947 -0.010309
vn 0.000000 0.999947 -0.010309
s off
g polySurface44 pPyramid4
usemtl lambert3SG
f 2/1/1 8/2/2 9/3/3
f 11/4/4 2/1/5 10/5/6
f 1/6/7 2/1/8 11/4/9
f 12/7/10 2/1/11 1/6/12
f 2/1/13 12/7/14 8/2/15
f 13/8/16 2/1/17 9/3/18
f 2/1/19 13/8/20 10/5/21
f 1/9/22 14/10/23 12/11/24
f 15/12/25 16/13/26 1/9/27
f 11/14/28 17/15/29 1/9/30
f 3/16/31 18/17/32 14/10/33
f 16/13/34 19/18/35 3/16/36
f 16/13/37 3/16/38 4/19/39
f 4/19/40 3/16/41 14/10/42
f 16/13/43 4/19/44 1/9/45
f 1/9/46 4/19/47 14/10/48
f 3/16/49 20/20/50 21/21/51
f 3/16/52 19/18/53 5/22/54
f 19/18/55 22/23/56 5/22/57
f 5/22/58 23/24/59 24/25/60
f 6/26/61 25/27/62 26/28/63
f 27/29/64 28/30/65 7/31/66
f 29/32/67 30/33/68 6/26/69
f 20/20/70 3/16/71 31/34/72
f 3/16/73 5/22/74 31/34/75
f 5/22/76 32/35/77 31/34/78
f 32/35/79 5/22/80 33/36/81
f 22/23/82 27/29/83 5/22/84
f 5/22/85 24/25/86 33/36/87
f 6/26/88 5/22/89 7/31/90
f 5/22/91 6/26/92 23/24/93
f 30/33/94 25/27/95 6/26/96
f 6/26/97 26/28/98 23/24/99
f 29/32/100 6/26/101 7/31/102
f 28/30/103 29/32/104 7/31/105
f 27/29/106 7/31/107 5/22/108
f 3/16/109 21/21/110 18/17/111
f 17/15/112 15/12/113 1/9/114
